<svg width="120" height="120" viewBox="0 0 120 120" fill="none" xmlns="http://www.w3.org/2000/svg">
<path d="M106.739 69.896C106.156 68.1305 104.629 66.9005 102.654 66.6055C101.722 66.4665 100.656 66.526 99.3935 66.786C97.194 67.24 95.562 67.4125 94.3705 67.446C98.8665 59.856 102.522 51.2005 104.627 43.0524C108.03 29.8776 106.211 23.8757 104.086 21.1609C98.4625 13.9752 90.2575 10.1149 80.359 9.99675C75.079 9.9322 70.4435 10.9748 68.0255 11.7246C65.774 11.3273 63.353 11.1053 60.813 11.0644C56.0515 10.9884 51.8445 12.0264 48.2497 14.1598C46.2596 13.4867 43.0655 12.5379 39.3769 11.9325C30.7015 10.5083 23.7094 11.6181 18.5951 15.2311C12.4022 19.6057 9.5312 27.2061 10.0622 37.8215C10.2308 41.1919 12.1162 51.4465 15.0847 61.1715C16.7907 66.761 18.6099 71.403 20.4919 74.9695C23.1606 80.0265 26.0164 83.0045 29.2223 84.074C31.0191 84.6725 34.2838 85.0915 37.7175 82.232C38.1528 82.759 38.7336 83.2825 39.504 83.7695C40.4828 84.3865 41.6796 84.891 42.8748 85.19C47.182 86.2665 51.217 85.997 54.6585 84.488C54.68 85.1 54.6965 85.685 54.71 86.19C54.733 87.0095 54.7555 87.8125 54.7855 88.564C54.9895 93.643 55.335 97.5925 56.359 100.357C56.4155 100.508 56.491 100.74 56.5705 100.986C57.0815 102.55 57.9355 105.168 60.109 107.219C62.359 109.343 65.081 109.994 67.574 109.994C68.8245 109.994 70.0175 109.83 71.0635 109.606C74.7935 108.807 79.0295 107.589 82.0935 103.226C84.9905 99.101 86.399 92.8885 86.6535 83.1C86.6865 82.8235 86.717 82.559 86.7465 82.307L86.807 81.7895L87.4895 81.85L87.6655 81.8615C91.464 82.035 96.109 81.2295 98.9615 79.904C101.216 78.858 108.439 75.0445 106.739 69.896Z" fill="black"/>
<path d="M100.243 70.8975C88.948 73.2275 88.1715 69.403 88.1715 69.403C100.097 51.7075 105.082 29.2448 100.78 23.7472C89.043 8.75095 68.726 15.8434 68.387 16.0271L68.278 16.0469C66.046 15.5835 63.549 15.3077 60.742 15.2618C55.6315 15.1782 51.7545 16.6018 48.8125 18.8327C48.8125 18.8327 12.5683 3.90146 14.2544 37.6114C14.6128 44.7827 24.5331 91.874 36.3654 77.6505C40.6901 72.449 44.869 68.0515 44.869 68.0515C46.9443 69.43 49.4289 70.1335 52.0335 69.881L52.236 69.709C52.173 70.355 52.202 70.9865 52.317 71.7345C49.2687 75.14 50.1645 75.738 44.0711 76.9925C37.9051 78.263 41.5273 80.525 43.8922 81.117C46.7592 81.8335 53.392 82.849 57.874 76.575L57.6955 77.291C58.8895 78.248 59.728 83.513 59.5875 88.287C59.4465 93.06 59.353 96.3375 60.294 98.8975C61.2355 101.457 62.173 107.217 70.1835 105.5C76.877 104.066 80.3455 100.349 80.828 94.1485C81.1705 89.7405 81.9455 90.3925 81.9945 86.451L82.616 84.5855C83.3325 78.61 82.73 76.6825 86.8535 77.579L87.856 77.667C90.8905 77.805 94.8635 77.1785 97.195 76.095C102.215 73.7655 105.192 69.875 100.242 70.8975H100.243Z" fill="#336791"/>
<path d="M50.934 40.8181C49.9161 40.6765 48.9942 40.8075 48.5278 41.1608C48.2659 41.3594 48.1845 41.5896 48.1624 41.748C48.1041 42.1677 48.3981 42.6317 48.5787 42.871C49.0899 43.5485 49.8367 44.0142 50.576 44.1166C50.683 44.1319 50.7895 44.1387 50.8955 44.1387C52.128 44.1387 53.249 43.179 53.3475 42.4707C53.471 41.5835 52.183 40.9922 50.934 40.8185" fill="white"/>
<path d="M84.654 40.8467C84.5565 40.1513 83.3195 39.9531 82.145 40.1164C80.972 40.2796 79.835 40.8092 79.93 41.5061C80.006 42.0481 80.9845 42.9732 82.143 42.9732C82.241 42.9732 82.3395 42.9668 82.439 42.9527C83.2125 42.8456 83.78 42.3545 84.0495 42.0716C84.4595 41.64 84.6975 41.1593 84.654 40.8467Z" fill="white"/>
<path d="M104.002 70.632C103.571 69.33 102.185 68.911 99.8815 69.3865C93.0435 70.798 90.5945 69.82 89.7905 69.228C95.1055 61.131 99.4785 51.3425 101.837 42.2104C102.955 37.8845 103.572 33.867 103.623 30.5925C103.678 26.9983 103.066 24.3573 101.804 22.744C96.7135 16.2399 89.2425 12.7511 80.1995 12.6554C73.983 12.5854 68.73 14.1765 67.712 14.6238C65.568 14.0906 63.23 13.7632 60.685 13.7214C56.018 13.6458 51.984 14.7632 48.6441 17.0409C47.1932 16.5008 43.4438 15.2136 38.8584 14.475C30.9314 13.1989 24.632 14.1658 20.1367 17.3505C14.7728 21.1506 12.2967 27.9436 12.7763 37.5405C12.9378 40.7691 14.7775 50.7015 17.6806 60.2135C21.5021 72.7335 25.6564 79.8205 30.0272 81.2785C30.5387 81.4495 31.1285 81.5685 31.779 81.5685C33.3735 81.5685 35.3283 80.85 37.3621 78.405C39.8429 75.429 42.4089 72.5255 45.0571 69.6975C46.7753 70.6195 48.6629 71.1345 50.5935 71.1865C50.597 71.237 50.602 71.2875 50.607 71.3375C50.2745 71.734 49.9491 72.1355 49.6307 72.5435C48.2931 74.2415 48.0146 74.595 43.7089 75.4815C42.4841 75.7345 39.231 76.4045 39.1833 78.685C39.1316 81.1765 43.0287 82.223 43.4727 82.334C45.02 82.721 46.5106 82.912 47.9322 82.912C51.3895 82.912 54.432 81.776 56.8635 79.5775C56.7885 88.459 57.159 97.211 58.2255 99.878C59.099 102.061 61.2325 107.396 67.9725 107.395C68.9615 107.395 70.05 107.28 71.2475 107.023C78.282 105.516 81.3365 102.407 82.518 95.5525C83.1505 91.8895 84.2355 83.1425 84.746 78.4505C85.823 78.7865 87.2095 78.94 88.7085 78.94C91.835 78.94 95.443 78.2755 97.7055 77.2255C100.247 76.045 104.834 73.149 104.002 70.632ZM87.2505 38.9266C87.227 40.3119 87.0365 41.5693 86.8345 42.8819C86.6165 44.2937 86.392 45.7532 86.3355 47.5249C86.2795 49.2493 86.495 51.042 86.703 52.7755C87.124 56.2775 87.5555 59.8825 85.884 63.4395C85.6065 62.9475 85.359 62.439 85.1435 61.917C84.936 61.4135 84.4845 60.6045 83.86 59.4845C81.4295 55.1265 75.738 44.9196 78.652 40.7547C79.5195 39.515 81.722 38.2404 87.2505 38.9266ZM80.549 15.4603C88.6515 15.6391 95.061 18.6702 99.599 24.469C103.08 28.9168 99.247 49.155 88.152 66.6145C88.0405 66.473 87.928 66.3315 87.8155 66.1905L87.675 66.015C90.542 61.28 89.9815 56.595 89.4825 52.442C89.2775 50.737 89.0835 49.1273 89.133 47.6149C89.184 46.0123 89.3955 44.6374 89.601 43.3081C89.8525 41.6699 90.109 39.975 90.0385 37.9769C90.091 37.7671 90.1125 37.5195 90.085 37.2255C89.9045 35.3096 87.7165 29.575 83.258 24.3846C80.819 21.5456 77.262 18.3686 72.4055 16.2259C74.4945 15.793 77.351 15.3891 80.549 15.4603ZM35.2098 76.615C32.969 79.3095 31.4217 78.793 30.9127 78.6235C27.5971 77.5175 23.7499 70.5095 20.3579 59.3965C17.4227 49.7809 15.7075 40.1116 15.5716 37.4004C15.1432 28.8252 17.2218 22.8491 21.7502 19.6376C29.1198 14.4115 41.236 17.5396 46.1047 19.126C46.0347 19.1952 45.9619 19.2598 45.8927 19.3299C37.9033 27.3984 38.0928 41.1834 38.1127 42.0263C38.1119 42.3513 38.1391 42.8118 38.1764 43.4448C38.3138 45.7634 38.5699 50.0785 37.8863 54.9655C37.2512 59.507 38.6511 63.9515 41.7263 67.1605C42.0419 67.489 42.3736 67.802 42.7203 68.098C41.3515 69.564 38.3766 72.806 35.2098 76.615ZM43.7472 65.224C41.2687 62.6375 40.1431 59.04 40.6584 55.353C41.3799 50.191 41.1138 45.6946 40.9705 43.2792C40.9504 42.9411 40.9326 42.6449 40.9223 42.4113C42.0894 41.3763 47.4982 38.4786 51.355 39.3624C53.1155 39.7653 54.188 40.9638 54.6335 43.0255C56.9415 53.699 54.939 58.1475 53.3305 61.7225C52.999 62.459 52.6855 63.155 52.418 63.875L52.2105 64.432C51.6855 65.8395 51.1975 67.1485 50.8945 68.391C48.2596 68.3835 45.6964 67.2575 43.7472 65.2235V65.224ZM44.1517 79.618C43.3823 79.426 42.6902 79.092 42.2844 78.8155C42.6235 78.656 43.2269 78.4385 44.2736 78.223C49.3391 77.1805 50.1215 76.444 51.8295 74.275C52.2215 73.7775 52.6655 73.214 53.28 72.5275L53.281 72.5265C54.1965 71.501 54.6155 71.675 55.375 71.9905C55.991 72.245 56.5905 73.0165 56.8335 73.8655C56.9485 74.267 57.0775 75.028 56.655 75.6205C53.0865 80.617 47.8862 80.553 44.1517 79.618ZM70.661 104.287C64.4645 105.615 62.27 102.452 60.8245 98.8385C59.8915 96.5045 59.4325 85.982 59.758 74.3615C59.762 74.207 59.74 74.0575 59.6975 73.917C59.6595 73.6395 59.6015 73.365 59.5245 73.096C59.0405 71.405 57.8615 69.991 56.4465 69.404C55.8845 69.1715 54.853 68.7445 53.613 69.0615C53.8775 67.972 54.336 66.742 54.833 65.41L55.0415 64.8495C55.2765 64.2185 55.571 63.5635 55.8825 62.871C57.566 59.1305 59.872 54.0075 57.3695 42.4342C56.432 38.0992 53.302 35.9822 48.5566 36.4739C45.7119 36.7683 43.1091 37.9161 41.8111 38.5743C41.532 38.7155 41.2767 38.8522 41.0382 38.9852C41.4004 34.6176 42.7692 26.4549 47.8896 21.2904C51.114 18.0393 55.4075 16.4337 60.6385 16.5203C70.9465 16.6887 77.5565 21.9786 81.287 26.3869C84.5015 30.1854 86.242 34.0118 86.9365 36.0757C81.7125 35.5442 78.1595 36.5754 76.3585 39.1504C72.44 44.7517 78.502 55.623 81.4155 60.848C81.95 61.8055 82.411 62.633 82.556 62.9845C83.505 65.284 84.733 66.819 85.6295 67.9395C85.9045 68.283 86.1715 68.616 86.374 68.9065C84.792 69.363 81.95 70.417 82.209 75.685C82 78.3285 80.5145 90.7045 79.76 95.077C78.7635 100.854 76.638 103.006 70.661 104.287ZM96.527 74.687C94.909 75.438 92.2015 76.001 89.6295 76.122C86.7885 76.255 85.342 75.804 85.002 75.5265C84.8425 72.2435 86.0645 71.9005 87.3575 71.5375C87.5605 71.4805 87.759 71.4245 87.9505 71.3575C88.069 71.4545 88.1995 71.5505 88.3425 71.645C90.6255 73.152 94.698 73.314 100.448 72.1275L100.511 72.115C99.7355 72.84 98.4085 73.813 96.527 74.687Z" fill="white"/>
</svg>
