<svg width="120" height="120" viewBox="0 0 120 120" fill="none" xmlns="http://www.w3.org/2000/svg">
<path d="M41.6667 110C50.8668 110 58.3335 102.533 58.3335 93.3333V76.6667H41.6667C32.4667 76.6667 25 84.1333 25 93.3333C25 102.533 32.4667 110 41.6667 110Z" fill="#0ACF83"/>
<path d="M25 60.0002C25 50.8002 32.4667 43.3336 41.6667 43.3336H58.3335V76.6668H41.6667C32.4667 76.6668 25 69.2002 25 60.0002Z" fill="#A259FF"/>
<path d="M25 26.6667C25 17.4667 32.4667 10 41.6667 10H58.3335V43.3334H41.6667C32.4667 43.3334 25 35.8667 25 26.6667Z" fill="#F24E1E"/>
<path d="M58.3328 10H74.9996C84.1997 10 91.6664 17.4667 91.6664 26.6667C91.6664 35.8667 84.1997 43.3334 74.9996 43.3334H58.3328V10Z" fill="#FF7262"/>
<path d="M91.6664 60.0002C91.6664 69.2002 84.1997 76.6668 74.9996 76.6668C65.7995 76.6668 58.3328 69.2002 58.3328 60.0002C58.3328 50.8002 65.7995 43.3336 74.9996 43.3336C84.1997 43.3336 91.6664 50.8002 91.6664 60.0002Z" fill="#1ABCFE"/>
</svg>
